<?xml version="1.0" encoding="UTF-8" standalone="no"?>
<!-- Created with Inkscape (http://www.inkscape.org/) -->

<svg
   width="200.30713mm"
   height="143.56339mm"
   viewBox="0 0 709.74967 508.68916"
   id="svg4517"
   version="1.1"
   inkscape:version="1.4.2 (f4327f4, 2025-05-13)"
   sodipodi:docname="THR logo full colors.svg"
   inkscape:export-filename="THR logo full colors.png"
   inkscape:export-xdpi="556.99451"
   inkscape:export-ydpi="556.99451"
   xmlns:inkscape="http://www.inkscape.org/namespaces/inkscape"
   xmlns:sodipodi="http://sodipodi.sourceforge.net/DTD/sodipodi-0.dtd"
   xmlns="http://www.w3.org/2000/svg"
   xmlns:svg="http://www.w3.org/2000/svg"
   xmlns:rdf="http://www.w3.org/1999/02/22-rdf-syntax-ns#"
   xmlns:cc="http://creativecommons.org/ns#"
   xmlns:dc="http://purl.org/dc/elements/1.1/">
  <defs
     id="defs4519" />
  <sodipodi:namedview
     id="base"
     pagecolor="#ffffff"
     bordercolor="#666666"
     borderopacity="1.0"
     inkscape:pageopacity="0.0"
     inkscape:pageshadow="2"
     inkscape:zoom="0.49497475"
     inkscape:cx="259.6092"
     inkscape:cy="172.73608"
     inkscape:document-units="px"
     inkscape:current-layer="layer1"
     showgrid="false"
     inkscape:window-width="1920"
     inkscape:window-height="1009"
     inkscape:window-x="-8"
     inkscape:window-y="-8"
     inkscape:window-maximized="1"
     inkscape:showpageshadow="2"
     inkscape:pagecheckerboard="0"
     inkscape:deskcolor="#d1d1d1"
     inkscape:export-bgcolor="#ffffffff" />
  <metadata
     id="metadata4522">
    <rdf:RDF>
      <cc:Work
         rdf:about="">
        <dc:format>image/svg+xml</dc:format>
        <dc:type
           rdf:resource="http://purl.org/dc/dcmitype/StillImage" />
      </cc:Work>
    </rdf:RDF>
  </metadata>
  <g
     inkscape:label="Layer 1"
     inkscape:groupmode="layer"
     id="layer1"
     transform="translate(-13.078827,-325.0445)">
    <g
       id="g5821"
       transform="matrix(0.51992645,0,0,0.51992645,939.87275,626.35623)">
      <g
         id="g5729">
        <g
           id="g4296"
           transform="matrix(1.25,0,0,-1.25,-1088.4641,-213.07215)">
          <path
             d="m 0,0 c -22.527,10.508 -51.535,24.164 -78.594,38.43 -45.543,24.031 -57.527,46.086 -57.527,46.086 -9.27,14.132 -6.774,28.007 0.238,40.101 0.809,-1.734 1.762,-3.469 2.906,-5.203 0,0 11.981,-22.055 57.512,-46.078 C -33.977,51.445 11.637,31.141 31.871,21.281 50.082,12.609 65.086,5.125 70.453,1.875 c 8.598,-5.234 32.715,-17.453 46.313,-38.743 13.523,-18.968 9.48,-35.961 5.683,-44.82 C 110.32,-59.75 83.883,-43.43 75.832,-38.5 67.098,-33.204 33.277,-16.805 0,0"
             style="fill:#bec0c2;fill-opacity:1;fill-rule:nonzero;stroke:none"
             id="path4298"
             inkscape:connector-curvature="0" />
        </g>
        <g
           id="g4300"
           transform="matrix(1.25,0,0,-1.25,-1088.4641,-213.07215)">
          <path
             d="m 0,0 c -22.527,10.508 -51.535,24.164 -78.594,38.43 -45.543,24.031 -57.527,46.086 -57.527,46.086 -9.27,14.132 -6.774,28.007 0.238,40.101 0.809,-1.734 1.762,-3.469 2.906,-5.203 0,0 11.981,-22.055 57.512,-46.078 C -33.977,51.445 11.637,31.141 31.871,21.281 50.082,12.609 65.086,5.125 70.453,1.875 c 8.598,-5.234 32.715,-17.453 46.313,-38.743 13.523,-18.968 9.48,-35.961 5.683,-44.82 C 110.32,-59.75 83.883,-43.43 75.832,-38.5 67.098,-33.204 33.277,-16.805 0,0 Z"
             style="fill:none;stroke:#373535;stroke-width:2.679;stroke-linecap:butt;stroke-linejoin:miter;stroke-miterlimit:4;stroke-dasharray:none;stroke-opacity:1"
             id="path4302"
             inkscape:connector-curvature="0" />
        </g>
        <g
           id="g4304"
           transform="matrix(1.25,0,0,-1.25,-926.0714,215.5991)">
          <path
             d="m 0,0 c -1.363,31.766 -39.227,58.516 -49.133,65.516 -6.801,4.797 -29.172,17.984 -54.555,32.937 -25.207,14.82 -64.371,37.391 -100.222,60.82 -48.766,31.852 -56.692,55.656 -56.692,55.656 -3.695,9.258 -6.222,18.758 -7.011,32.695 l 1.164,29.836 c -0.035,-13.234 4.59,-21.172 5.316,-22.492 0,0 11.957,-26.703 60.699,-58.585 24.914,-16.274 51.411,-32.133 73.704,-45.242 32.64,-19.305 65.792,-38.938 74.265,-44.938 11.777,-8.297 52.395,-31.195 51.996,-74.055 z"
             style="fill:#bec0c2;fill-opacity:1;fill-rule:nonzero;stroke:none"
             id="path4306"
             inkscape:connector-curvature="0" />
        </g>
        <g
           id="g4308"
           transform="matrix(1.25,0,0,-1.25,-926.0714,215.5991)">
          <path
             d="m 0,0 c -1.363,31.766 -39.227,58.516 -49.133,65.516 -6.801,4.797 -29.172,17.984 -54.555,32.937 -25.207,14.82 -64.371,37.391 -100.222,60.82 -48.766,31.852 -56.692,55.656 -56.692,55.656 -3.695,9.258 -6.222,18.758 -7.011,32.695 l 1.164,29.836 c -0.035,-13.234 4.59,-21.172 5.316,-22.492 0,0 11.957,-26.703 60.699,-58.585 24.914,-16.274 51.411,-32.133 73.704,-45.242 32.64,-19.305 65.792,-38.938 74.265,-44.938 11.777,-8.297 52.395,-31.195 51.996,-74.055 z"
             style="fill:none;stroke:#373535;stroke-width:2.679;stroke-linecap:butt;stroke-linejoin:miter;stroke-miterlimit:4;stroke-dasharray:none;stroke-opacity:1"
             id="path4310"
             inkscape:connector-curvature="0" />
        </g>
        <g
           id="g4312"
           transform="matrix(1.25,0,0,-1.25,-1210.4221,51.66347)">
          <path
             d="m 0,0 c 2.594,-6.664 9,-14.5 17.961,-21.164 8.934,-6.625 18.305,-10.508 25.406,-11.07 l -24.57,-33.047 c -2.606,6.64 -9.008,14.484 -17.981,21.125 -8.914,6.633 -18.277,10.515 -25.394,11.093 z"
             style="fill:#6d3d94;fill-opacity:1;fill-rule:nonzero;stroke:none"
             id="path4314"
             inkscape:connector-curvature="0" />
        </g>
        <g
           id="g4316"
           transform="matrix(1.25,0,0,-1.25,-1161.8088,152.42522)">
          <path
             d="m 0,0 c 7.109,-0.813 16.352,-4.922 25.125,-11.781 8.754,-6.867 14.988,-14.867 17.422,-21.602 1.484,-4.164 4.094,-7.945 7.844,-10.859 10.562,-8.281 25.847,-6.469 34.125,4.094 8.281,10.578 6.433,25.875 -4.149,34.156 -3.707,2.929 -8.031,4.562 -12.445,5.008 -7.102,0.757 -16.32,4.882 -25.109,11.773 -8.747,6.859 -14.969,14.875 -17.415,21.57 -1.496,4.18 -4.101,8 -7.871,10.883 C 6.996,51.555 -8.297,49.711 -16.547,39.125 -24.836,28.578 -23,13.289 -12.426,5.023 -8.711,2.07 -4.391,0.438 0,0"
             style="fill:#6d3d94;fill-opacity:1;fill-rule:nonzero;stroke:none"
             id="path4318"
             inkscape:connector-curvature="0" />
        </g>
        <g
           id="g4320"
           transform="matrix(1.25,0,0,-1.25,-1154.0548,-38.49278)">
          <path
             d="m 0,0 c -6.926,1.727 -17.051,1.023 -27.652,-2.43 -10.567,-3.437 -19.164,-8.836 -23.727,-14.289 l -12.746,39.148 c 6.906,-1.719 17.027,-1.039 27.633,2.422 10.582,3.453 19.16,8.828 23.746,14.312 z"
             style="fill:#6d3d94;fill-opacity:1;fill-rule:nonzero;stroke:none"
             id="path4322"
             inkscape:connector-curvature="0" />
        </g>
        <g
           id="g4324"
           transform="matrix(1.25,0,0,-1.25,-1029.7531,-345.2304)">
          <path
             d="m 0,0 c 1.617,-6.953 6.84,-15.633 14.73,-23.492 7.895,-7.852 16.622,-13.031 23.575,-14.625 L 9.23,-67.313 c -1.601,6.969 -6.839,15.633 -14.714,23.508 -7.891,7.844 -16.61,13.032 -23.571,14.625 z"
             style="fill:#6d3d94;fill-opacity:1;fill-rule:nonzero;stroke:none"
             id="path4326"
             inkscape:connector-curvature="0" />
        </g>
        <g
           id="g4328"
           transform="matrix(1.25,0,0,-1.25,-1144.7384,-357.69128)">
          <path
             d="m 0,0 c 7.137,0.273 16.895,-2.477 26.559,-8.023 9.656,-5.547 16.961,-12.563 20.324,-18.836 2.074,-3.899 5.23,-7.321 9.351,-9.672 11.621,-6.688 26.5,-2.633 33.188,8.984 6.664,11.633 2.629,26.508 -9,33.172 -4.113,2.359 -8.629,3.352 -13.043,3.203 -7.125,-0.273 -16.891,2.477 -26.551,8.008 -9.668,5.539 -16.961,12.562 -20.332,18.859 -2.07,3.907 -5.215,7.313 -9.324,9.672 -11.633,6.68 -26.516,2.656 -33.184,-9.008 C -28.676,24.75 -24.672,9.875 -13.016,3.195 -8.914,0.844 -4.41,-0.195 0,0"
             style="fill:#6d3d94;fill-opacity:1;fill-rule:nonzero;stroke:none"
             id="path4330"
             inkscape:connector-curvature="0" />
        </g>
        <g
           id="g4332"
           transform="matrix(1.25,0,0,-1.25,-973.4689,-138.68678)">
          <path
             d="m 0,0 c -7.129,-0.492 -16.516,-4.305 -25.496,-10.898 -8.984,-6.579 -15.469,-14.368 -18.106,-21.008 L -67.938,1.328 c 7.125,0.516 16.532,4.344 25.504,10.922 8.973,6.578 15.477,14.367 18.098,20.992 z"
             style="fill:#6d3d94;fill-opacity:1;fill-rule:nonzero;stroke:none"
             id="path4334"
             inkscape:connector-curvature="0" />
        </g>
        <g
           id="g4336"
           transform="matrix(1.25,0,0,-1.25,-1012.0432,-248.62878)">
          <path
             d="m 0,0 c 4.535,-5.523 8.254,-14.945 9.703,-25.977 1.453,-11.031 0.317,-21.109 -2.672,-27.609 -1.828,-4.008 -2.636,-8.563 -2.019,-13.258 1.75,-13.321 13.957,-22.696 27.246,-20.961 13.324,1.75 22.711,13.93 20.953,27.234 -0.617,4.735 -2.531,8.938 -5.363,12.328 -4.543,5.516 -8.27,14.938 -9.719,26.001 -1.426,11 -0.266,21.094 2.687,27.578 1.848,4.008 2.657,8.578 2.032,13.266 C 41.117,31.938 28.918,41.297 15.594,39.539 2.285,37.82 -7.102,25.617 -5.332,12.313 -4.727,7.602 -2.82,3.406 0,0"
             style="fill:#6d3d94;fill-opacity:1;fill-rule:nonzero;stroke:none"
             id="path4338"
             inkscape:connector-curvature="0" />
        </g>
        <g
           id="g4340"
           transform="matrix(1.25,0,0,-1.25,-1081.6721,-126.58715)">
          <path
             d="m 0,0 c -3.902,-6 -11.762,-12.359 -21.867,-17.055 -10.09,-4.711 -20.055,-6.648 -27.125,-5.765 -4.395,0.562 -8.973,-0.055 -13.27,-2.078 -12.176,-5.657 -17.449,-20.11 -11.797,-32.29 5.684,-12.163 20.153,-17.436 32.321,-11.795 4.289,2.023 7.699,5.131 10.105,8.827 3.899,6.008 11.766,12.39 21.86,17.086 10.089,4.695 20.039,6.625 27.132,5.742 4.403,-0.539 8.973,0.078 13.27,2.062 12.172,5.657 17.445,20.133 11.769,32.289 C 36.766,9.188 22.27,14.469 10.125,8.82 5.828,6.813 2.391,3.703 0,0"
             style="fill:#6d3d94;fill-opacity:1;fill-rule:nonzero;stroke:none"
             id="path4342"
             inkscape:connector-curvature="0" />
        </g>
        <g
           id="g4344"
           transform="matrix(1.25,0,0,-1.25,-1266.8771,-20.21153)">
          <path
             d="m 0,0 c 3.957,-5.945 6.711,-15.734 7.02,-26.844 0.324,-11.125 -1.821,-21.039 -5.434,-27.195 -2.246,-3.828 -3.504,-8.242 -3.383,-13 0.418,-13.399 11.598,-24 25.016,-23.609 13.41,0.382 24.008,11.601 23.586,25.015 -0.125,4.758 -1.633,9.117 -4.082,12.797 -3.965,5.953 -6.707,15.672 -7.028,26.82 -0.312,11.11 1.848,21.024 5.461,27.196 2.258,3.797 3.5,8.258 3.352,13.023 C 44.129,27.577 32.93,38.179 19.52,37.757 6.109,37.39 -4.461,26.194 -4.098,12.781 -3.949,8.031 -2.461,3.656 0,0"
             style="fill:#6d3d94;fill-opacity:1;fill-rule:nonzero;stroke:none"
             id="path4346"
             inkscape:connector-curvature="0" />
        </g>
        <g
           id="g4348"
           transform="matrix(1.25,0,0,-1.25,-1107.4436,-531.73428)">
          <path
             d="m 0,0 c -32.652,-19.289 -65.801,-38.938 -74.281,-44.914 -11.782,-8.313 -52.379,-31.211 -51.989,-74.094 l -0.476,-32.109 c 1.379,31.765 39.238,58.508 49.137,65.515 6.812,4.782 29.164,17.969 54.566,32.938 z"
             style="fill:#e7e8e9;fill-opacity:1;fill-rule:nonzero;stroke:none"
             id="path4350"
             inkscape:connector-curvature="0" />
        </g>
        <g
           id="g4352"
           transform="matrix(1.25,0,0,-1.25,-1107.4436,-531.73428)">
          <path
             d="m 0,0 c -32.652,-19.289 -65.801,-38.938 -74.281,-44.914 -11.782,-8.313 -52.379,-31.211 -51.989,-74.094 l -0.476,-32.109 c 1.379,31.765 39.238,58.508 49.137,65.515 6.812,4.782 29.164,17.969 54.566,32.938 z"
             style="fill:none;stroke:#373535;stroke-width:2.679;stroke-linecap:butt;stroke-linejoin:miter;stroke-miterlimit:4;stroke-dasharray:none;stroke-opacity:1"
             id="path4354"
             inkscape:connector-curvature="0" />
        </g>
        <g
           id="g4356"
           transform="matrix(1.25,0,0,-1.25,-1212.2971,33.38222)">
          <path
             d="m 0,0 c 2.59,-6.664 9,-14.5 17.961,-21.164 8.937,-6.609 18.297,-10.508 25.402,-11.07 L 18.797,-65.281 c -2.609,6.64 -9.016,14.484 -17.977,21.125 -8.918,6.648 -18.277,10.531 -25.398,11.093 z"
             style="fill:#6d3d94;fill-opacity:1;fill-rule:nonzero;stroke:none"
             id="path4358"
             inkscape:connector-curvature="0" />
        </g>
        <g
           id="g4360"
           transform="matrix(1.25,0,0,-1.25,-1163.6838,134.12447)">
          <path
             d="m 0,0 c 7.102,-0.805 16.355,-4.922 25.117,-11.773 8.762,-6.891 15,-14.875 17.43,-21.61 1.484,-4.18 4.086,-7.961 7.836,-10.875 10.566,-8.281 25.844,-6.453 34.133,4.11 8.269,10.562 6.422,25.875 -4.141,34.14 -3.727,2.953 -8.035,4.563 -12.445,5.024 -7.11,0.757 -16.332,4.867 -25.129,11.757 -8.731,6.86 -14.965,14.875 -17.403,21.586 -1.5,4.164 -4.109,7.985 -7.878,10.883 C 6.992,51.555 -8.293,49.711 -16.555,39.109 -24.844,28.563 -23.004,13.289 -12.434,5.008 -8.711,2.055 -4.395,0.422 0,0"
             style="fill:#ffffff;fill-opacity:1;fill-rule:nonzero;stroke:none"
             id="path4362"
             inkscape:connector-curvature="0" />
        </g>
        <g
           id="g4364"
           transform="matrix(1.25,0,0,-1.25,-1163.6838,134.12447)">
          <path
             d="m 0,0 c 7.102,-0.805 16.355,-4.922 25.117,-11.773 8.762,-6.891 15,-14.875 17.43,-21.61 1.484,-4.18 4.086,-7.961 7.836,-10.875 10.566,-8.281 25.844,-6.453 34.133,4.11 8.269,10.562 6.422,25.875 -4.141,34.14 -3.727,2.953 -8.035,4.563 -12.445,5.024 -7.11,0.757 -16.332,4.867 -25.129,11.757 -8.731,6.86 -14.965,14.875 -17.403,21.586 -1.5,4.164 -4.109,7.985 -7.878,10.883 C 6.992,51.555 -8.293,49.711 -16.555,39.109 -24.844,28.563 -23.004,13.289 -12.434,5.008 -8.711,2.055 -4.395,0.422 0,0 Z"
             style="fill:none;stroke:#6d3d94;stroke-width:2.679;stroke-linecap:butt;stroke-linejoin:miter;stroke-miterlimit:4;stroke-dasharray:none;stroke-opacity:1"
             id="path4366"
             inkscape:connector-curvature="0" />
        </g>
        <g
           id="g4368"
           transform="matrix(1.25,0,0,-1.25,-1072.3557,173.04047)">
          <path
             d="m 0,0 c -3.324,-4.219 -9.441,-4.992 -13.695,-1.648 -4.2,3.304 -4.946,9.437 -1.606,13.64 3.278,4.235 9.395,4.992 13.606,1.633 C 2.531,10.359 3.285,4.188 0,0"
             style="fill:#6d3d94;fill-opacity:1;fill-rule:nonzero;stroke:none"
             id="path4370"
             inkscape:connector-curvature="0" />
        </g>
        <g
           id="g4372"
           transform="matrix(1.25,0,0,-1.25,-1150.9249,111.46822)">
          <path
             d="m 0,0 c -3.324,-4.219 -9.422,-4.992 -13.66,-1.656 -4.207,3.359 -4.961,9.422 -1.641,13.64 3.309,4.243 9.418,4.993 13.656,1.657 C 2.559,10.336 3.293,4.219 0,0"
             style="fill:#6d3d94;fill-opacity:1;fill-rule:nonzero;stroke:none"
             id="path4374"
             inkscape:connector-curvature="0" />
        </g>
        <g
           id="g4376"
           transform="matrix(1.25,0,0,-1.25,-1155.9347,-56.77278)">
          <path
             d="m 0,0 c -6.93,1.727 -17.047,1.039 -27.656,-2.43 -10.567,-3.437 -19.153,-8.835 -23.719,-14.288 L -64.121,22.43 c 6.91,-1.703 17.023,-1.039 27.629,2.422 10.574,3.453 19.156,8.828 23.742,14.312 z"
             style="fill:#6d3d94;fill-opacity:1;fill-rule:nonzero;stroke:none"
             id="path4378"
             inkscape:connector-curvature="0" />
        </g>
        <g
           id="g4380"
           transform="matrix(1.25,0,0,-1.25,-1031.6183,-363.51165)">
          <path
             d="m 0,0 c 1.598,-6.945 6.828,-15.633 14.73,-23.492 7.875,-7.828 16.602,-13.031 23.555,-14.617 L 9.227,-67.305 c -1.606,6.961 -6.844,15.625 -14.731,23.5 -7.891,7.86 -16.609,13.047 -23.562,14.625 z"
             style="fill:#6d3d94;fill-opacity:1;fill-rule:nonzero;stroke:none"
             id="path4382"
             inkscape:connector-curvature="0" />
        </g>
        <g
           id="g4384"
           transform="matrix(1.25,0,0,-1.25,-1146.6232,-375.97253)">
          <path
             d="m 0,0 c 7.137,0.273 16.906,-2.477 26.559,-8.016 9.664,-5.547 16.964,-12.554 20.339,-18.843 2.075,-3.907 5.219,-7.305 9.344,-9.672 11.625,-6.68 26.496,-2.649 33.176,8.984 C 96.09,-15.914 92.055,-1.039 80.43,5.641 76.305,7.984 71.805,9 67.387,8.836 60.258,8.539 50.5,11.305 40.832,16.836 31.164,22.391 23.875,29.414 20.504,35.695 18.43,39.602 15.293,43.031 11.176,45.367 -0.461,52.063 -15.332,48.023 -22.008,36.375 -28.68,24.75 -24.664,9.875 -13.016,3.195 -8.906,0.844 -4.402,-0.18 0,0"
             style="fill:#ffffff;fill-opacity:1;fill-rule:nonzero;stroke:none"
             id="path4386"
             inkscape:connector-curvature="0" />
        </g>
        <g
           id="g4388"
           transform="matrix(1.25,0,0,-1.25,-1146.6232,-375.97253)">
          <path
             d="m 0,0 c 7.137,0.273 16.906,-2.477 26.559,-8.016 9.664,-5.547 16.964,-12.554 20.339,-18.843 2.075,-3.907 5.219,-7.305 9.344,-9.672 11.625,-6.68 26.496,-2.649 33.176,8.984 C 96.09,-15.914 92.055,-1.039 80.43,5.641 76.305,7.984 71.805,9 67.387,8.836 60.258,8.539 50.5,11.305 40.832,16.836 31.164,22.391 23.875,29.414 20.504,35.695 18.43,39.602 15.293,43.031 11.176,45.367 -0.461,52.063 -15.332,48.023 -22.008,36.375 -28.68,24.75 -24.664,9.875 -13.016,3.195 -8.906,0.844 -4.402,-0.18 0,0 Z"
             style="fill:none;stroke:#6d3d94;stroke-width:2.679;stroke-linecap:butt;stroke-linejoin:miter;stroke-miterlimit:4;stroke-dasharray:none;stroke-opacity:1"
             id="path4390"
             inkscape:connector-curvature="0" />
        </g>
        <g
           id="g4392"
           transform="matrix(1.25,0,0,-1.25,-1050.6906,-350.63078)">
          <path
             d="m 0,0 c -2.656,-4.672 -8.598,-6.281 -13.254,-3.617 -4.66,2.672 -6.277,8.617 -3.605,13.289 2.691,4.656 8.632,6.258 13.281,3.57 C 1.09,10.578 2.699,4.633 0,0"
             style="fill:#6d3d94;fill-opacity:1;fill-rule:nonzero;stroke:none"
             id="path4394"
             inkscape:connector-curvature="0" />
        </g>
        <g
           id="g4396"
           transform="matrix(1.25,0,0,-1.25,-1137.2433,-400.26941)">
          <path
             d="m 0,0 c -2.676,-4.648 -8.617,-6.258 -13.277,-3.586 -4.653,2.672 -6.246,8.633 -3.571,13.274 2.641,4.648 8.606,6.289 13.258,3.601 C 1.074,10.617 2.664,4.664 0,0"
             style="fill:#6d3d94;fill-opacity:1;fill-rule:nonzero;stroke:none"
             id="path4398"
             inkscape:connector-curvature="0" />
        </g>
        <g
           id="g4400"
           transform="matrix(1.25,0,0,-1.25,-975.3488,-156.98766)">
          <path
             d="m 0,0 c -7.137,-0.508 -16.512,-4.32 -25.488,-10.898 -9,-6.579 -15.469,-14.391 -18.106,-21.024 L -67.938,1.32 c 7.118,0.516 16.524,4.344 25.504,10.914 8.977,6.555 15.481,14.383 18.106,21.001 z"
             style="fill:#6d3d94;fill-opacity:1;fill-rule:nonzero;stroke:none"
             id="path4402"
             inkscape:connector-curvature="0" />
        </g>
        <g
           id="g4404"
           transform="matrix(1.25,0,0,-1.25,-1013.9328,-266.9199)">
          <path
             d="m 0,0 c 4.555,-5.531 8.262,-14.938 9.715,-25.984 1.449,-11.024 0.305,-21.11 -2.664,-27.61 -1.848,-3.992 -2.637,-8.563 -2.031,-13.258 1.75,-13.32 13.949,-22.695 27.253,-20.961 13.317,1.75 22.696,13.953 20.954,27.258 -0.622,4.711 -2.547,8.914 -5.36,12.313 -4.554,5.508 -8.281,14.945 -9.722,25.992 -1.43,11.016 -0.282,21.102 2.691,27.594 1.844,4.008 2.637,8.57 2.019,13.265 C 41.125,31.938 28.926,41.289 15.609,39.531 2.305,37.813 -7.09,25.609 -5.332,12.32 -4.727,7.594 -2.813,3.406 0,0"
             style="fill:#ffffff;fill-opacity:1;fill-rule:nonzero;stroke:none"
             id="path4406"
             inkscape:connector-curvature="0" />
        </g>
        <g
           id="g4408"
           transform="matrix(1.25,0,0,-1.25,-1013.9328,-266.9199)">
          <path
             d="m 0,0 c 4.555,-5.531 8.262,-14.938 9.715,-25.984 1.449,-11.024 0.305,-21.11 -2.664,-27.61 -1.848,-3.992 -2.637,-8.563 -2.031,-13.258 1.75,-13.32 13.949,-22.695 27.253,-20.961 13.317,1.75 22.696,13.953 20.954,27.258 -0.622,4.711 -2.547,8.914 -5.36,12.313 -4.554,5.508 -8.281,14.945 -9.722,25.992 -1.43,11.016 -0.282,21.102 2.691,27.594 1.844,4.008 2.637,8.57 2.019,13.265 C 41.125,31.938 28.926,41.289 15.609,39.531 2.305,37.813 -7.09,25.609 -5.332,12.32 -4.727,7.594 -2.813,3.406 0,0 Z"
             style="fill:none;stroke:#6d3d94;stroke-width:2.679;stroke-linecap:butt;stroke-linejoin:miter;stroke-miterlimit:4;stroke-dasharray:none;stroke-opacity:1"
             id="path4410"
             inkscape:connector-curvature="0" />
        </g>
        <g
           id="g4412"
           transform="matrix(1.25,0,0,-1.25,-975.9641,-175.22978)">
          <path
             d="M 0,0 C -5.316,-0.703 -10.195,3.055 -10.898,8.375 -11.582,13.696 -7.84,18.594 -2.52,19.266 2.805,19.977 7.699,16.227 8.367,10.906 9.09,5.57 5.328,0.695 0,0"
             style="fill:#6d3d94;fill-opacity:1;fill-rule:nonzero;stroke:none"
             id="path4414"
             inkscape:connector-curvature="0" />
        </g>
        <g
           id="g4416"
           transform="matrix(1.25,0,0,-1.25,-988.9132,-274.19528)">
          <path
             d="m 0,0 c -5.32,-0.688 -10.195,3.055 -10.891,8.375 -0.695,5.336 3.039,10.219 8.368,10.906 C 2.801,19.984 7.688,16.227 8.41,10.898 9.078,5.57 5.324,0.711 0,0"
             style="fill:#6d3d94;fill-opacity:1;fill-rule:nonzero;stroke:none"
             id="path4418"
             inkscape:connector-curvature="0" />
        </g>
        <g
           id="g4420"
           transform="matrix(1.25,0,0,-1.25,-1083.5519,-144.8684)">
          <path
             d="m 0,0 c -3.91,-5.984 -11.758,-12.359 -21.871,-17.055 -10.086,-4.711 -20.051,-6.648 -27.125,-5.765 -4.391,0.562 -8.961,-0.055 -13.27,-2.055 -12.168,-5.68 -17.449,-20.133 -11.789,-32.297 5.68,-12.18 20.145,-17.453 32.321,-11.797 4.289,2.008 7.699,5.117 10.105,8.813 3.895,6.008 11.762,12.39 21.863,17.101 10.082,4.688 20.039,6.625 27.125,5.727 4.395,-0.539 8.965,0.078 13.27,2.078 12.176,5.656 17.449,20.117 11.777,32.289 C 36.758,9.203 22.273,14.477 10.133,8.82 5.828,6.82 2.391,3.703 0,0"
             style="fill:#ffffff;fill-opacity:1;fill-rule:nonzero;stroke:none"
             id="path4422"
             inkscape:connector-curvature="0" />
        </g>
        <g
           id="g4424"
           transform="matrix(1.25,0,0,-1.25,-1083.5519,-144.8684)">
          <path
             d="m 0,0 c -3.91,-5.984 -11.758,-12.359 -21.871,-17.055 -10.086,-4.711 -20.051,-6.648 -27.125,-5.765 -4.391,0.562 -8.961,-0.055 -13.27,-2.055 -12.168,-5.68 -17.449,-20.133 -11.789,-32.297 5.68,-12.18 20.145,-17.453 32.321,-11.797 4.289,2.008 7.699,5.117 10.105,8.813 3.895,6.008 11.762,12.39 21.863,17.101 10.082,4.688 20.039,6.625 27.125,5.727 4.395,-0.539 8.965,0.078 13.27,2.078 12.176,5.656 17.449,20.117 11.777,32.289 C 36.758,9.203 22.273,14.477 10.133,8.82 5.828,6.82 2.391,3.703 0,0 Z"
             style="fill:none;stroke:#6d3d94;stroke-width:2.679;stroke-linecap:butt;stroke-linejoin:miter;stroke-miterlimit:4;stroke-dasharray:none;stroke-opacity:1"
             id="path4426"
             inkscape:connector-curvature="0" />
        </g>
        <g
           id="g4428"
           transform="matrix(1.25,0,0,-1.25,-1159.5773,-81.0794)">
          <path
             d="M 0,0 C -2.258,4.883 -0.168,10.664 4.703,12.938 9.59,15.203 15.379,13.086 17.621,8.203 19.902,3.336 17.785,-2.43 12.918,-4.68 8.051,-6.969 2.262,-4.859 0,0"
             style="fill:#6d3d94;fill-opacity:1;fill-rule:nonzero;stroke:none"
             id="path4430"
             inkscape:connector-curvature="0" />
        </g>
        <g
           id="g4432"
           transform="matrix(1.25,0,0,-1.25,-1069.1037,-123.22778)">
          <path
             d="M 0,0 C -2.258,4.859 -0.148,10.641 4.711,12.891 9.598,15.164 15.379,13.07 17.621,8.188 19.906,3.352 17.789,-2.469 12.93,-4.719 8.059,-6.977 2.277,-4.875 0,0"
             style="fill:#6d3d94;fill-opacity:1;fill-rule:nonzero;stroke:none"
             id="path4434"
             inkscape:connector-curvature="0" />
        </g>
        <g
           id="g4436"
           transform="matrix(1.25,0,0,-1.25,-1268.7521,-38.51228)">
          <path
             d="m 0,0 c 3.949,-5.961 6.711,-15.75 7.008,-26.859 0.34,-11.11 -1.809,-21.039 -5.426,-27.196 -2.25,-3.828 -3.508,-8.242 -3.375,-13 0.406,-13.398 11.59,-24 25.008,-23.593 13.414,0.39 24.004,11.601 23.59,25 -0.133,4.757 -1.629,9.117 -4.09,12.796 -3.961,5.954 -6.703,15.696 -7.024,26.836 -0.316,11.11 1.856,21.024 5.465,27.18 2.258,3.797 3.5,8.257 3.356,13.023 C 44.129,27.562 32.922,38.163 19.52,37.741 6.113,37.39 -4.461,26.194 -4.098,12.765 -3.961,8.038 -2.457,3.656 0,0"
             style="fill:#ffffff;fill-opacity:1;fill-rule:nonzero;stroke:none"
             id="path4438"
             inkscape:connector-curvature="0" />
        </g>
        <g
           id="g4440"
           transform="matrix(1.25,0,0,-1.25,-1268.7521,-38.51228)">
          <path
             d="m 0,0 c 3.949,-5.961 6.711,-15.75 7.008,-26.859 0.34,-11.11 -1.809,-21.039 -5.426,-27.196 -2.25,-3.828 -3.508,-8.242 -3.375,-13 0.406,-13.398 11.59,-24 25.008,-23.593 13.414,0.39 24.004,11.601 23.59,25 -0.133,4.757 -1.629,9.117 -4.09,12.796 -3.961,5.954 -6.703,15.696 -7.024,26.836 -0.316,11.11 1.856,21.024 5.465,27.18 2.258,3.797 3.5,8.257 3.356,13.023 C 44.129,27.562 32.922,38.163 19.52,37.741 6.113,37.39 -4.461,26.194 -4.098,12.765 -3.961,8.038 -2.457,3.656 0,0 Z"
             style="fill:none;stroke:#6d3d94;stroke-width:2.679;stroke-linecap:butt;stroke-linejoin:miter;stroke-miterlimit:4;stroke-dasharray:none;stroke-opacity:1"
             id="path4442"
             inkscape:connector-curvature="0" />
        </g>
        <g
           id="g4444"
           transform="matrix(1.25,0,0,-1.25,-1240.2218,56.58535)">
          <path
             d="m 0,0 c -5.387,-0.117 -9.875,4.078 -10.043,9.461 -0.133,5.359 4.094,9.844 9.461,9.984 5.359,0.172 9.836,-4.062 9.973,-9.406 C 9.57,4.68 5.324,0.18 0,0"
             style="fill:#6d3d94;fill-opacity:1;fill-rule:nonzero;stroke:none"
             id="path4446"
             inkscape:connector-curvature="0" />
        </g>
        <g
           id="g4448"
           transform="matrix(1.25,0,0,-1.25,-1243.1124,-43.19003)">
          <path
             d="m 0,0 c -5.387,-0.141 -9.859,4.077 -10.004,9.46 -0.148,5.359 4.07,9.828 9.422,9.969 5.344,0.156 9.855,-4.078 10,-9.446 C 9.566,4.663 5.348,0.164 0,0"
             style="fill:#6d3d94;fill-opacity:1;fill-rule:nonzero;stroke:none"
             id="path4450"
             inkscape:connector-curvature="0" />
        </g>
        <g
           id="g4452"
           transform="matrix(1.25,0,0,-1.25,-989.0597,-486.66589)">
          <path
             d="m 0,0 c 11.777,-8.305 52.383,-31.18 51.996,-74.07 l -1.422,-32.227 c -1.371,31.766 -37.336,58.609 -47.25,65.625 -6.804,4.781 -29.164,17.961 -54.547,32.938 z"
             style="fill:#bec0c2;fill-opacity:1;fill-rule:nonzero;stroke:none"
             id="path4454"
             inkscape:connector-curvature="0" />
        </g>
        <g
           id="g4456"
           transform="matrix(1.25,0,0,-1.25,-989.0597,-486.66589)">
          <path
             d="m 0,0 c 11.777,-8.305 52.383,-31.18 51.996,-74.07 l -1.422,-32.227 c -1.371,31.766 -37.336,58.609 -47.25,65.625 -6.804,4.781 -29.164,17.961 -54.547,32.938 z"
             style="fill:none;stroke:#373535;stroke-width:2.679;stroke-linecap:butt;stroke-linejoin:miter;stroke-miterlimit:4;stroke-dasharray:none;stroke-opacity:1"
             id="path4458"
             inkscape:connector-curvature="0" />
        </g>
        <g
           id="g4460"
           transform="matrix(1.25,0,0,-1.25,-1265.8762,215.5991)">
          <path
             d="m 0,0 c 1.379,31.766 39.238,58.516 49.137,65.516 6.812,4.797 29.164,17.984 54.566,32.937 25.203,14.82 64.367,37.391 100.207,60.82 48.762,31.852 56.707,55.656 56.707,55.656 3.684,9.258 6.242,18.758 7.016,32.695 l 0.414,31.234 c 0.023,-13.25 -6.172,-22.57 -6.902,-23.89 0,0 -11.954,-26.703 -60.715,-58.585 C 175.539,180.109 149.031,164.25 126.746,151.141 94.094,131.836 60.945,112.203 52.465,106.203 40.684,97.906 0.086,75.008 0.477,32.148 Z"
             style="fill:#e7e8e9;fill-opacity:1;fill-rule:nonzero;stroke:none"
             id="path4462"
             inkscape:connector-curvature="0" />
        </g>
        <g
           id="g4464"
           transform="matrix(1.25,0,0,-1.25,-1265.8762,215.5991)">
          <path
             d="m 0,0 c 1.379,31.766 39.238,58.516 49.137,65.516 6.812,4.797 29.164,17.984 54.566,32.937 25.203,14.82 64.367,37.391 100.207,60.82 48.762,31.852 56.707,55.656 56.707,55.656 3.684,9.258 6.242,18.758 7.016,32.695 l 0.414,31.234 c 0.023,-13.25 -6.172,-22.57 -6.902,-23.89 0,0 -11.954,-26.703 -60.715,-58.585 C 175.539,180.109 149.031,164.25 126.746,151.141 94.094,131.836 60.945,112.203 52.465,106.203 40.684,97.906 0.086,75.008 0.477,32.148 Z"
             style="fill:none;stroke:#373535;stroke-width:2.679;stroke-linecap:butt;stroke-linejoin:miter;stroke-miterlimit:4;stroke-dasharray:none;stroke-opacity:1"
             id="path4466"
             inkscape:connector-curvature="0" />
        </g>
        <g
           id="g4468"
           transform="matrix(1.25,0,0,-1.25,-1259.8654,-86.7434)">
          <path
             d="m 0,0 c 1.699,26.422 39.129,54.016 48.836,60.25 11.59,7.445 29.949,16.414 54.59,27.977 25.207,12.555 64.371,31.727 100.238,51.586 48.789,27 56.945,46.867 56.945,46.867 3.754,7.75 6.391,21.477 7.313,33.086 l 0.738,25.961 c -0.105,-11.008 -6.383,-18.82 -7.109,-19.914 0,0 -12.164,-22.328 -60.961,-49.336 -24.918,-13.82 -51.426,-27.258 -73.715,-38.406 C 94.211,121.696 61.063,105.032 52.57,99.954 40.777,92.938 0.18,66.313 0.117,30.672 Z"
             style="fill:#e7e8e9;fill-opacity:1;fill-rule:nonzero;stroke:none"
             id="path4470"
             inkscape:connector-curvature="0" />
        </g>
        <g
           id="g4472"
           transform="matrix(1.25,0,0,-1.25,-1259.8654,-86.7434)">
          <path
             d="m 0,0 c 1.699,26.422 39.129,54.016 48.836,60.25 11.59,7.445 29.949,16.414 54.59,27.977 25.207,12.555 64.371,31.727 100.238,51.586 48.789,27 56.945,46.867 56.945,46.867 3.754,7.75 6.391,21.477 7.313,33.086 l 0.738,25.961 c -0.105,-11.008 -6.383,-18.82 -7.109,-19.914 0,0 -12.164,-22.328 -60.961,-49.336 -24.918,-13.82 -51.426,-27.258 -73.715,-38.406 C 94.211,121.696 61.063,105.032 52.57,99.954 40.777,92.938 0.18,66.313 0.117,30.672 Z"
             style="fill:none;stroke:#373535;stroke-width:2.679;stroke-linecap:butt;stroke-linejoin:miter;stroke-miterlimit:4;stroke-dasharray:none;stroke-opacity:1"
             id="path4474"
             inkscape:connector-curvature="0" />
        </g>
      </g>
      <g
         id="g5702">
        <g
           id="g4476"
           transform="matrix(1.25,0,0,-1.25,-1707.5901,-281.05066)"
           style="fill:#ffffff;fill-opacity:1">
          <path
             d="m 0,0 c -3.727,-0.211 -7.453,-0.508 -11.172,-0.914 0.484,2.187 0.727,4.5 0.727,6.914 0,1.063 -0.082,2.125 -0.243,3.227 -0.16,1.093 -0.328,2.312 -0.484,3.711 6.074,-0.633 12.121,-1.008 18.156,-1.094 6.036,-0.086 12.082,-0.141 18.157,-0.141 5.828,0 11.777,0.055 17.859,0.141 6.063,0.086 12.301,0.461 18.695,1.094 -0.164,-0.985 -0.32,-2.079 -0.48,-3.29 -0.168,-1.21 -0.246,-2.585 -0.246,-4.125 0,-1.218 0.078,-2.398 0.246,-3.523 0.16,-1.141 0.316,-2.109 0.48,-2.914 C 57.977,-0.508 54.25,-0.211 50.523,0 46.801,0.195 43,0.297 39.113,0.297 38.938,-2.375 38.848,-5.43 38.805,-8.859 38.762,-12.32 38.738,-15.773 38.738,-19.25 v -6.555 c 0,-4.711 0.024,-9.117 0.067,-13.258 0.043,-4.109 0.078,-8.117 0.117,-12.023 0.043,-3.867 0.148,-7.68 0.308,-11.406 0.161,-3.727 0.36,-7.578 0.606,-11.532 -4.211,0.399 -7.516,0.68 -9.898,0.844 -2.391,0.156 -4.153,0.234 -5.282,0.234 -3.402,0 -6.254,-0.125 -8.562,-0.422 -2.309,-0.281 -4.149,-0.5 -5.528,-0.656 0.247,2.251 0.442,4.797 0.61,7.641 0.16,2.836 0.301,5.828 0.426,8.985 0.121,3.171 0.195,6.367 0.234,9.601 0.043,3.25 0.066,6.352 0.066,9.344 v 10.82 5.219 c 0,3.078 -0.043,6.625 -0.121,10.625 -0.086,4.008 -0.203,8.047 -0.367,12.086 C 7.527,0.297 3.727,0.195 0,0"
             style="fill:#ffffff;fill-opacity:1;fill-rule:nonzero;stroke:#373535;stroke-width:4;paint-order:stroke fill"
             id="path4478"
             inkscape:connector-curvature="0" />
        </g>
        <g
           id="g4480"
           transform="matrix(1.25,0,0,-1.25,-1581.9552,-247.19328)"
           style="fill:#ffffff;fill-opacity:1">
          <path
             d="m 0,0 c 0.363,-0.047 0.746,-0.055 1.148,-0.055 h 2.188 c 5.019,0 8.523,1.383 10.504,4.18 1.984,2.797 2.976,6.539 2.976,11.234 0,3.399 -0.464,6.071 -1.398,8.016 -0.93,1.953 -2.082,3.43 -3.461,4.43 -1.375,1.023 -2.898,1.648 -4.551,1.89 -1.656,0.243 -3.218,0.352 -4.679,0.352 -0.649,0 -1.289,-0.016 -1.938,-0.055 -0.648,-0.031 -1.301,-0.094 -1.945,-0.164 V 0.172 C -0.758,0.102 -0.375,0.031 0,0 m 33.641,-18.227 c 1.98,-3.273 4.027,-6.578 6.132,-9.89 2.102,-3.321 4.207,-6.602 6.313,-9.844 2.109,-3.227 4.129,-6.234 6.066,-8.977 -2.828,0.305 -5.66,0.578 -8.496,0.789 -2.836,0.195 -5.668,0.289 -8.5,0.289 -2.75,0 -5.343,-0.094 -7.773,-0.289 -2.43,-0.211 -4.985,-0.484 -7.653,-0.789 -3.238,6.313 -6.5,12.571 -9.777,18.758 -3.281,6.203 -6.855,12.446 -10.754,18.758 h -0.355 c 0,-5.336 0.062,-11.351 0.179,-18.039 0.122,-6.68 0.348,-13.164 0.668,-19.477 -2.351,0.305 -4.695,0.578 -7.043,0.789 -2.351,0.195 -4.781,0.289 -7.289,0.289 -2.265,0 -4.64,-0.094 -7.109,-0.289 -2.465,-0.211 -5.074,-0.484 -7.832,-0.789 0.406,4.11 0.754,9.032 1.027,14.75 0.293,5.711 0.43,11.477 0.43,17.313 0,2.664 -0.023,6.016 -0.059,10.008 -0.039,4 -0.101,8.445 -0.175,13.305 -0.082,4.843 -0.211,9.984 -0.375,15.359 -0.157,5.391 -0.36,10.797 -0.602,16.226 2.832,-0.414 5.648,-0.687 8.438,-0.851 2.796,-0.172 5.484,-0.242 8.082,-0.242 3.886,0 7.753,0.179 11.593,0.539 3.848,0.359 7.711,0.554 11.602,0.554 4.047,0 8.117,-0.281 12.211,-0.851 4.082,-0.586 7.769,-1.68 11.051,-3.336 3.277,-1.664 5.953,-4.016 8.015,-7.055 2.063,-3.039 3.102,-7.062 3.102,-12.086 0,-6.148 -1.766,-10.914 -5.293,-14.328 -3.52,-3.398 -8.199,-5.711 -14.027,-6.922 l 2.675,-4.492 c 1.7,-2.844 3.535,-5.898 5.528,-9.18"
             style="fill:#ffffff;fill-opacity:1;fill-rule:nonzero;stroke:#373535;stroke-width:4;paint-order:stroke fill"
             id="path4482"
             inkscape:connector-curvature="0" />
        </g>
        <g
           id="g4484"
           transform="matrix(1.25,0,0,-1.25,-1470.3781,-212.72065)"
           style="fill:#ffffff;fill-opacity:1">
          <path
             d="m 0,0 c 0.121,-7.094 0.465,-13.539 1.027,-19.36 -2.265,0.399 -4.715,0.68 -7.343,0.844 -2.633,0.156 -5.247,0.234 -7.836,0.234 -2.582,0 -5.141,-0.109 -7.657,-0.359 -2.5,-0.242 -4.765,-0.5 -6.789,-0.719 0.403,6.782 0.7,13.469 0.907,20.024 0.203,6.555 0.304,13.25 0.304,20.039 0,1.625 -0.023,3.641 -0.062,6.008 -0.039,2.398 -0.063,4.852 -0.063,7.367 0,2.586 -0.023,5.078 -0.054,7.469 -0.047,2.375 -0.063,4.391 -0.063,6 0,2.844 -0.086,6.023 -0.246,9.594 -0.164,3.57 -0.406,7.047 -0.723,10.461 2.098,-0.25 4.528,-0.5 7.282,-0.743 2.757,-0.242 5.257,-0.351 7.531,-0.351 2.508,0 5.105,0.086 7.777,0.305 2.66,0.195 5.051,0.453 7.168,0.789 C 0.742,61.766 0.426,56.016 0.18,50.336 -0.063,44.688 -0.184,38.93 -0.184,33.102 V 20.969 C -0.184,14.078 -0.125,7.078 0,0"
             style="fill:#ffffff;fill-opacity:1;fill-rule:nonzero;stroke:#373535;stroke-width:4;paint-order:stroke fill"
             id="path4486"
             inkscape:connector-curvature="0" />
        </g>
        <g
           id="g4488"
           transform="matrix(1.25,0,0,-1.25,-1391.5207,-275.88465)"
           style="fill:#ffffff;fill-opacity:1">
          <path
             d="m 0,0 c -0.723,1.891 -1.691,3.375 -2.91,4.43 -1.211,1.054 -2.61,1.758 -4.192,2.125 -1.578,0.367 -3.253,0.539 -5.039,0.539 -0.73,0 -1.437,-0.016 -2.129,-0.055 -0.687,-0.031 -1.351,-0.094 -2,-0.164 0,-3.094 -0.015,-5.898 -0.058,-8.469 -0.043,-2.547 -0.067,-4.984 -0.067,-7.344 v -6.921 -7.149 c 0.407,-0.086 0.774,-0.148 1.098,-0.195 0.32,-0.031 0.692,-0.055 1.094,-0.055 h 2.43 c 2.5,0 4.589,0.406 6.253,1.195 1.657,0.821 2.977,1.922 3.942,3.29 0.976,1.39 1.668,3.046 2.07,4.992 0.406,1.937 0.606,4 0.606,6.187 C 1.098,-4.438 0.734,-1.898 0,0 m 26.363,-19.32 c -1.867,-3.352 -4.355,-6.047 -7.476,-8.078 -3.11,-2.008 -6.68,-3.461 -10.688,-4.313 -4.008,-0.836 -8.199,-1.266 -12.566,-1.266 -2.84,0 -5.227,0.055 -7.164,0.18 -1.942,0.141 -3.563,0.266 -4.864,0.422 0,-2.422 0.024,-5.523 0.067,-9.281 0.043,-3.766 0.094,-7.563 0.18,-11.36 0.085,-3.812 0.199,-7.257 0.363,-10.39 0.164,-3.11 0.371,-5.282 0.601,-6.485 -2.265,0.219 -4.535,0.476 -6.793,0.719 -2.261,0.25 -4.535,0.359 -6.796,0.359 -2.762,0 -5.497,-0.094 -8.204,-0.289 -2.714,-0.211 -5.449,-0.484 -8.195,-0.789 0.317,3.868 0.606,7.438 0.856,10.68 0.234,3.242 0.414,6.414 0.539,9.539 0.121,3.109 0.203,6.313 0.242,9.594 0.039,3.281 0.062,6.89 0.062,10.859 0,2.992 -0.023,6.422 -0.062,10.266 -0.039,3.851 -0.121,7.844 -0.242,11.976 -0.125,4.133 -0.266,8.243 -0.426,12.383 -0.16,4.125 -0.363,8.024 -0.606,11.664 2.672,-0.414 5.442,-0.687 8.313,-0.851 2.879,-0.172 5.527,-0.242 7.957,-0.242 4.215,0 8.437,0.179 12.699,0.539 4.246,0.359 8.356,0.554 12.324,0.554 3.891,0 7.789,-0.39 11.715,-1.093 3.93,-0.735 7.43,-1.993 10.508,-3.766 3.078,-1.789 5.586,-4.211 7.531,-7.289 1.942,-3.086 2.914,-7 2.914,-11.797 0,-4.93 -0.929,-9.086 -2.789,-12.445"
             style="fill:#ffffff;fill-opacity:1;fill-rule:nonzero;stroke:#373535;stroke-width:4;paint-order:stroke fill"
             id="path4490"
             inkscape:connector-curvature="0" />
        </g>
        <g
           id="g4492"
           transform="matrix(1.25,0,0,-1.25,-1298.3029,-203.91203)"
           style="fill:#ffffff;fill-opacity:1">
          <path
             d="m 0,0 c 2.43,0.039 5.125,0.133 8.074,0.258 2.957,0.117 5.934,0.258 8.934,0.422 2.988,0.156 5.457,0.398 7.406,0.718 -0.168,-0.882 -0.309,-1.914 -0.426,-3.086 -0.125,-1.187 -0.183,-2.492 -0.183,-3.945 0,-1.148 0.058,-2.25 0.183,-3.359 0.117,-1.086 0.258,-2.196 0.426,-3.321 -5.098,0.398 -9.656,0.68 -13.668,0.844 -4.008,0.156 -7.992,0.234 -11.957,0.234 -4.375,0 -9.394,-0.078 -15.066,-0.234 -5.664,-0.164 -11.536,-0.446 -17.606,-0.844 0.727,3.547 1.211,7.313 1.457,11.282 0.246,3.976 0.363,7.703 0.363,11.187 v 6.313 c 0,3.875 -0.019,7.429 -0.062,10.617 -0.043,3.211 -0.078,6.227 -0.121,9.055 -0.039,2.82 -0.102,5.562 -0.18,8.195 -0.082,2.633 -0.168,5.367 -0.246,8.195 -0.156,3.727 -0.281,7.563 -0.359,11.485 -0.086,3.937 -0.328,7.461 -0.739,10.632 5.106,-0.742 10.293,-1.093 15.555,-1.093 2.512,0 4.918,0.07 7.227,0.242 2.3,0.164 4.675,0.437 7.105,0.851 -0.242,-2.109 -0.426,-4.921 -0.551,-8.46 C -4.551,62.672 -4.676,58.914 -4.797,54.977 -4.922,51 -5,47.063 -5.043,43.188 -5.086,39.297 -5.098,35.922 -5.098,33.094 v -5.578 c 0,-1.125 0.012,-3.016 0.055,-5.657 0.043,-2.64 0.066,-5.39 0.066,-8.312 0,-2.922 0.02,-5.664 0.055,-8.258 0.035,-2.601 0.063,-4.367 0.063,-5.336 0.808,0 2.433,0 4.859,0.047"
             style="fill:#ffffff;fill-opacity:1;fill-rule:nonzero;stroke:#373535;stroke-width:4;paint-order:stroke fill"
             id="path4494"
             inkscape:connector-curvature="0" />
        </g>
        <g
           id="g4496"
           transform="matrix(1.25,0,0,-1.25,-1206.7599,-203.8534)"
           style="fill:#ffffff;fill-opacity:1">
          <path
             d="m 0,0 c 1.137,0 2.688,0 4.68,0.047 1.98,0.039 4.062,0.117 6.25,0.187 2.191,0.086 4.312,0.188 6.375,0.297 2.07,0.125 3.75,0.227 5.043,0.313 -0.168,-1.133 -0.309,-2.297 -0.422,-3.461 -0.133,-1.18 -0.18,-2.336 -0.18,-3.461 0,-1.055 0.047,-2.11 0.18,-3.164 0.113,-1.047 0.254,-2.055 0.422,-3.024 -4.934,0.398 -9.856,0.68 -14.758,0.844 -4.902,0.156 -9.778,0.234 -14.633,0.234 -4.937,0 -9.883,-0.078 -14.816,-0.234 -4.946,-0.164 -9.879,-0.446 -14.821,-0.844 0.246,1.703 0.422,3.313 0.551,4.852 0.117,1.531 0.199,3.336 0.246,5.406 0.035,2.055 0.078,4.578 0.117,7.531 0.039,2.954 0.063,6.735 0.063,11.352 v 13.242 c 0,6.383 -0.024,11.68 -0.063,15.852 -0.039,4.156 -0.109,7.828 -0.183,10.976 -0.082,3.18 -0.203,6.086 -0.36,8.75 -0.168,2.672 -0.371,5.68 -0.613,9 4.211,-0.304 8.418,-0.539 12.633,-0.703 4.207,-0.187 8.418,-0.281 12.629,-0.281 2.351,0 5.043,0.023 8.074,0.055 3.039,0.039 6.117,0.078 9.231,0.117 3.125,0.039 6.136,0.125 9.05,0.258 2.914,0.148 5.465,0.328 7.653,0.554 -0.168,-1.148 -0.309,-2.211 -0.422,-3.218 -0.133,-1.024 -0.18,-2.094 -0.18,-3.219 0,-1.141 0.047,-2.281 0.18,-3.406 0.113,-1.125 0.254,-2.274 0.422,-3.414 -3.082,0.179 -6.118,0.351 -9.11,0.562 -2.992,0.195 -5.996,0.281 -8.988,0.281 H -8.5 V 38.492 c 0.965,0 2.43,0.024 4.371,0.063 1.941,0.054 4.227,0.101 6.859,0.195 2.633,0.055 5.524,0.188 8.684,0.367 3.164,0.141 6.441,0.352 9.84,0.586 -0.16,-1.133 -0.309,-2.203 -0.426,-3.203 -0.117,-1.016 -0.18,-2.094 -0.18,-3.227 0,-2.109 0.204,-4.304 0.606,-6.562 -2.43,0.164 -4.758,0.312 -6.984,0.422 C 12.047,27.25 9.781,27.391 7.469,27.5 5.16,27.617 2.711,27.703 0.125,27.75 -2.473,27.797 -5.344,27.797 -8.5,27.797 V 0 Z"
             style="fill:#ffffff;fill-opacity:1;fill-rule:nonzero;stroke:#373535;stroke-width:4;paint-order:stroke fill"
             id="path4498"
             inkscape:connector-curvature="0" />
        </g>
      </g>
      <g
         id="g5716">
        <g
           id="g4500"
           transform="matrix(1.25,0,0,-1.25,-929.7092,-245.3769)"
           style="fill:#ffffff;fill-opacity:1">
          <path
             d="m 0,0 c -0.035,2.539 -0.063,5.227 -0.063,8.078 0,2.899 -0.015,5.625 -0.062,8.141 -0.043,2.492 -0.07,4.234 -0.07,5.203 0,2.758 -0.071,5.805 -0.227,9.117 -0.176,3.32 -0.457,6.961 -0.863,10.938 2.191,-0.25 4.64,-0.5 7.348,-0.743 2.726,-0.242 5.25,-0.351 7.593,-0.351 2.27,0 4.801,0.086 7.594,0.305 2.797,0.195 5.238,0.453 7.348,0.789 -0.246,-2.852 -0.457,-5.805 -0.614,-8.883 -0.16,-3.071 -0.289,-6.133 -0.421,-9.156 -0.114,-3.04 -0.196,-5.954 -0.247,-8.75 -0.035,-2.797 -0.054,-5.383 -0.054,-7.711 1.863,-0.086 3.922,-0.149 6.187,-0.18 2.27,-0.055 4.625,-0.055 7.051,-0.055 2.109,0 4.332,0.031 6.68,0.102 2.355,0.094 4.656,0.133 6.925,0.133 0,2.414 -0.019,5.07 -0.07,7.953 -0.035,2.867 -0.105,5.812 -0.238,8.797 -0.113,3 -0.262,6.023 -0.43,9.062 -0.16,3.024 -0.351,5.93 -0.597,8.688 2.187,-0.25 4.648,-0.5 7.398,-0.743 2.762,-0.242 5.266,-0.351 7.543,-0.351 2.258,0 4.797,0.086 7.586,0.305 2.801,0.195 5.246,0.453 7.348,0.789 C 82.16,36.375 81.816,31.102 81.613,25.672 81.414,20.266 81.316,13.938 81.316,6.742 c 0,-5.429 0.036,-10.39 0.122,-14.883 0.07,-4.507 0.175,-8.797 0.3,-12.875 0.114,-4.093 0.246,-8.101 0.352,-12.023 0.121,-3.922 0.273,-8.086 0.43,-12.446 -5.184,0.719 -10.485,1.078 -15.899,1.078 -2.355,0 -4.676,-0.093 -6.996,-0.289 -2.305,-0.211 -4.633,-0.484 -6.98,-0.789 0.316,2.657 0.582,5.891 0.793,9.649 0.203,3.766 0.332,7.578 0.421,11.422 0.079,3.836 0.141,7.476 0.176,10.922 0.051,3.445 0.07,6.211 0.07,8.336 -2.199,0 -4.414,0.031 -6.679,0.101 -2.27,0.086 -4.535,0.125 -6.805,0.125 -2.109,0 -4.324,-0.023 -6.68,-0.054 -2.355,-0.032 -4.57,-0.11 -6.679,-0.172 0,-2.211 0.019,-5.016 0.054,-8.438 0.051,-3.469 0.106,-7.109 0.184,-10.945 0.09,-3.852 0.203,-7.633 0.371,-11.352 0.164,-3.718 0.359,-6.937 0.606,-9.594 -2.504,0.399 -5.028,0.68 -7.532,0.844 -2.507,0.156 -5.054,0.234 -7.656,0.234 -3.078,0 -5.738,-0.093 -8.008,-0.289 -2.265,-0.211 -4.457,-0.484 -6.566,-0.789 l 0.492,6.063 c 0.16,1.797 0.301,4.031 0.422,6.734 0.125,2.727 0.203,5.633 0.246,8.75 0.047,3.118 0.09,6.29 0.125,9.532 0.035,3.242 0.051,6.242 0.051,8.984 C 0.051,-4.359 0.035,-2.563 0,0"
             style="fill:#ffffff;fill-opacity:1;fill-rule:nonzero;stroke:#373535;stroke-width:4;paint-order:stroke fill"
             id="path4502"
             inkscape:connector-curvature="0" />
        </g>
        <g
           id="g4504"
           transform="matrix(1.25,0,0,-1.25,-758.3908,-203.8534)"
           style="fill:#ffffff;fill-opacity:1">
          <path
             d="m 0,0 c 1.125,0 2.691,0 4.676,0.047 1.988,0.039 4.062,0.117 6.258,0.187 2.179,0.086 4.308,0.188 6.363,0.297 2.074,0.125 3.746,0.227 5.047,0.313 -0.16,-1.133 -0.301,-2.297 -0.422,-3.461 -0.125,-1.18 -0.184,-2.336 -0.184,-3.461 0,-1.055 0.059,-2.11 0.184,-3.164 0.121,-1.047 0.262,-2.055 0.422,-3.024 -4.942,0.398 -9.864,0.68 -14.758,0.844 -4.895,0.156 -9.774,0.234 -14.633,0.234 -4.941,0 -9.879,-0.078 -14.82,-0.234 -4.938,-0.164 -9.879,-0.446 -14.817,-0.844 0.246,1.703 0.43,3.313 0.543,4.852 0.133,1.531 0.211,3.336 0.246,5.406 0.036,2.055 0.082,4.578 0.125,7.531 0.036,2.954 0.063,6.735 0.063,11.352 v 13.242 c 0,6.383 -0.027,11.68 -0.063,15.852 -0.043,4.156 -0.105,7.828 -0.183,10.976 -0.082,3.18 -0.203,6.086 -0.363,8.75 -0.157,2.672 -0.368,5.68 -0.614,9 4.219,-0.304 8.43,-0.539 12.637,-0.703 4.211,-0.187 8.422,-0.281 12.633,-0.281 2.344,0 5.035,0.023 8.074,0.055 3.043,0.039 6.117,0.078 9.231,0.117 3.109,0.039 6.132,0.125 9.05,0.258 2.91,0.148 5.469,0.328 7.649,0.554 -0.16,-1.148 -0.301,-2.211 -0.422,-3.218 -0.125,-1.024 -0.184,-2.094 -0.184,-3.219 0,-1.141 0.059,-2.281 0.184,-3.406 0.121,-1.125 0.262,-2.274 0.422,-3.414 -3.078,0.179 -6.117,0.351 -9.106,0.562 -3.008,0.195 -5.996,0.281 -8.992,0.281 H -8.508 V 38.492 c 0.977,0 2.438,0.024 4.379,0.063 1.941,0.054 4.219,0.101 6.856,0.195 2.636,0.055 5.527,0.188 8.683,0.367 3.164,0.141 6.442,0.352 9.836,0.586 -0.16,-1.133 -0.301,-2.203 -0.414,-3.203 -0.125,-1.016 -0.195,-2.094 -0.195,-3.227 0,-2.109 0.211,-4.304 0.609,-6.562 -2.426,0.164 -4.746,0.312 -6.98,0.422 -2.223,0.117 -4.5,0.258 -6.793,0.367 -2.313,0.117 -4.766,0.203 -7.356,0.25 -2.594,0.047 -5.461,0.047 -8.625,0.047 V 0 Z"
             style="fill:#ffffff;fill-opacity:1;fill-rule:nonzero;stroke:#373535;stroke-width:4;paint-order:stroke fill"
             id="path4506"
             inkscape:connector-curvature="0" />
        </g>
        <g
           id="g4508"
           transform="matrix(1.25,0,0,-1.25,-670.0363,-203.91203)"
           style="fill:#ffffff;fill-opacity:1">
          <path
             d="m 0,0 c 2.426,0.039 5.113,0.133 8.078,0.258 2.942,0.117 5.93,0.258 8.918,0.422 3.008,0.156 5.469,0.398 7.41,0.718 -0.168,-0.882 -0.297,-1.914 -0.429,-3.086 -0.114,-1.187 -0.176,-2.492 -0.176,-3.945 0,-1.148 0.062,-2.25 0.176,-3.359 0.132,-1.086 0.261,-2.196 0.429,-3.321 -5.097,0.398 -9.66,0.68 -13.656,0.844 -4.02,0.156 -8,0.234 -11.973,0.234 -4.367,0 -9.386,-0.078 -15.054,-0.234 -5.68,-0.164 -11.532,-0.446 -17.614,-0.844 0.731,3.547 1.211,7.313 1.457,11.282 0.246,3.976 0.371,7.703 0.371,11.187 v 6.313 c 0,3.875 -0.019,7.429 -0.062,10.617 -0.043,3.211 -0.078,6.227 -0.133,9.055 -0.035,2.82 -0.086,5.562 -0.176,8.195 -0.078,2.633 -0.156,5.367 -0.246,8.195 -0.156,3.727 -0.281,7.563 -0.367,11.485 -0.07,3.937 -0.316,7.461 -0.723,10.632 5.098,-0.742 10.286,-1.093 15.551,-1.093 2.504,0 4.91,0.07 7.231,0.242 2.304,0.164 4.668,0.437 7.101,0.851 -0.246,-2.109 -0.429,-4.921 -0.551,-8.46 C -4.555,62.672 -4.676,58.914 -4.801,54.977 -4.922,51 -4.992,47.063 -5.047,43.188 -5.082,39.297 -5.098,35.922 -5.098,33.094 v -5.578 c 0,-1.125 0.016,-3.016 0.051,-5.657 0.055,-2.64 0.07,-5.39 0.07,-8.312 0,-2.922 0.02,-5.664 0.055,-8.258 0.035,-2.601 0.063,-4.367 0.063,-5.336 0.796,0 2.433,0 4.859,0.047"
             style="fill:#ffffff;fill-opacity:1;fill-rule:nonzero;stroke:#373535;stroke-width:4;paint-order:stroke fill"
             id="path4510"
             inkscape:connector-curvature="0" />
        </g>
        <g
           id="g4512"
           transform="matrix(1.25,0,0,-1.25,-589.0451,-212.72065)"
           style="fill:#ffffff;fill-opacity:1">
          <path
             d="m 0,0 c 0.121,-7.094 0.457,-13.539 1.027,-19.36 -2.277,0.399 -4.718,0.68 -7.347,0.844 -2.629,0.156 -5.246,0.234 -7.832,0.234 -2.59,0 -5.149,-0.109 -7.653,-0.359 -2.508,-0.242 -4.773,-0.5 -6.797,-0.719 0.407,6.782 0.704,13.469 0.907,20.024 0.203,6.555 0.308,13.25 0.308,20.039 0,1.625 -0.019,3.641 -0.07,6.008 -0.035,2.398 -0.055,4.852 -0.055,7.367 0,2.586 -0.023,5.078 -0.051,7.469 -0.054,2.375 -0.07,4.391 -0.07,6 0,2.844 -0.09,6.023 -0.246,9.594 -0.16,3.57 -0.406,7.047 -0.723,10.461 2.102,-0.25 4.52,-0.5 7.278,-0.743 2.761,-0.242 5.265,-0.351 7.535,-0.351 2.504,0 5.105,0.086 7.777,0.305 2.672,0.195 5.063,0.453 7.164,0.789 C 0.738,61.766 0.422,56.016 0.176,50.336 -0.055,44.688 -0.195,38.93 -0.195,33.102 V 20.969 C -0.195,14.078 -0.125,7.078 0,0"
             style="fill:#ffffff;fill-opacity:1;fill-rule:nonzero;stroke:#373535;stroke-width:4;paint-order:stroke fill"
             id="path4514"
             inkscape:connector-curvature="0" />
        </g>
        <g
           id="g4516"
           transform="matrix(1.25,0,0,-1.25,-547.2336,-202.38865)"
           style="fill:#ffffff;fill-opacity:1">
          <path
             d="m 0,0 c -2.109,-3.672 -4.199,-7.375 -6.309,-11.094 -2.988,0.719 -5.996,1.078 -8.984,1.078 -1.457,0 -2.898,-0.094 -4.312,-0.289 -1.418,-0.211 -2.735,-0.485 -3.95,-0.789 4.864,6.383 9.59,12.828 14.215,19.313 4.613,6.469 9.024,12.976 13.227,19.554 -1.934,3.477 -4.063,7.274 -6.364,11.407 -2.312,4.133 -4.66,8.351 -7.05,12.64 -2.391,4.274 -4.735,8.508 -7.047,12.672 -2.305,4.164 -4.43,7.961 -6.371,11.375 5.746,-0.742 11.449,-1.094 17.129,-1.094 2.503,0 5.007,0.086 7.523,0.305 2.512,0.195 4.984,0.453 7.418,0.789 1.773,-4.383 3.727,-8.664 5.828,-12.883 2.098,-4.203 4.324,-8.421 6.668,-12.632 2.594,4.211 5.188,8.429 7.781,12.632 2.59,4.219 4.938,8.5 7.039,12.883 1.301,-0.25 2.68,-0.5 4.129,-0.742 1.461,-0.242 3,-0.352 4.618,-0.352 1.695,0 3.242,0.11 4.613,0.352 1.387,0.242 2.75,0.492 4.14,0.742 -2.355,-2.937 -4.562,-5.742 -6.621,-8.461 -2.074,-2.703 -4.129,-5.484 -6.203,-8.312 -2.058,-2.828 -4.211,-5.867 -6.433,-9.102 -2.223,-3.234 -4.676,-6.836 -7.348,-10.812 1.211,-2.594 2.934,-5.985 5.16,-10.211 2.223,-4.203 4.629,-8.696 7.231,-13.485 2.586,-4.765 5.238,-9.507 7.945,-14.195 2.719,-4.703 5.168,-8.836 7.359,-12.383 -0.976,0.07 -2.172,0.172 -3.586,0.304 -1.418,0.11 -2.894,0.227 -4.441,0.352 -1.527,0.133 -3.004,0.219 -4.43,0.313 -1.414,0.07 -2.601,0.109 -3.586,0.109 -2.425,0 -5.133,-0.094 -8.136,-0.289 -2.989,-0.211 -5.582,-0.485 -7.77,-0.789 -2.102,4.617 -4.262,9.172 -6.496,13.711 -2.223,4.539 -4.551,9.102 -6.977,13.727 L 6.445,11 C 4.254,7.352 2.109,3.688 0,0"
             style="fill:#ffffff;fill-opacity:1;fill-rule:nonzero;stroke:#373535;stroke-width:4;paint-order:stroke fill"
             id="path4518"
             inkscape:connector-curvature="0" />
        </g>
      </g>
    </g>
    <g
       style="font-style:normal;font-variant:normal;font-weight:normal;font-stretch:normal;font-size:21.1275px;line-height:125%;font-family:'Celtic Garamond the';-inkscape-font-specification:'Celtic Garamond the';text-align:center;letter-spacing:0px;word-spacing:0px;writing-mode:lr-tb;text-anchor:middle;fill:#ffffff;fill-opacity:1;stroke:#373535;stroke-width:3px;stroke-linecap:butt;stroke-linejoin:miter;stroke-opacity:1"
       id="text3341"
       transform="matrix(0.51992645,0,0,0.51992645,939.24257,626.35623)">
      <path
         d="m -1430.156,302.1989 c 13.9019,-2.95785 23.5149,-10.94405 23.5149,-25.88119 0,-24.25438 -22.1838,-28.39537 -41.8535,-28.39537 -9.4652,0 -18.7824,1.33104 -28.2475,1.33104 -6.3594,0 -13.3103,-0.29579 -20.1134,-1.33104 1.0353,26.32487 1.4789,53.98077 1.4789,66.84742 0,14.19768 -0.8873,28.98693 -1.7747,39.04363 6.6552,-0.73947 12.7188,-1.33104 18.1908,-1.33104 6.0636,0 11.8314,0.59157 17.4513,1.33104 -0.7394,-15.23293 -1.0352,-32.83214 -1.0352,-45.69879 h 0.4436 c 9.1694,15.23293 17.1556,30.61375 24.9939,45.69879 6.5073,-0.73947 12.1272,-1.33104 18.7823,-1.33104 6.951,0 13.9019,0.59157 20.705,1.33104 -9.4651,-13.45822 -21.0008,-32.24057 -29.2827,-46.14247 z m -32.3884,-41.85359 c 1.6268,-0.14789 3.1057,-0.29578 4.7325,-0.29578 7.0989,0 17.1556,1.33103 17.1556,17.89499 0,11.38773 -4.2889,18.78235 -16.4161,18.78235 -1.7747,0 -3.5494,0 -5.472,-0.29578 z"
         style="font-style:normal;font-variant:normal;font-weight:900;font-stretch:normal;font-size:147.893px;line-height:125%;font-family:'Optima LT Std';-inkscape-font-specification:'Optima LT Std, Heavy';text-align:center;writing-mode:lr-tb;text-anchor:middle"
         id="path5686"
         inkscape:connector-curvature="0" />
      <path
         d="m -1334.1044,246.59131 c -33.8674,0 -59.8965,18.93024 -59.8965,54.27655 0,34.31107 26.7686,54.27656 59.3049,54.27656 34.459,0 61.2275,-17.895 61.2275,-54.86813 0,-34.75474 -26.6206,-53.68498 -60.6359,-53.68498 z m 1.1831,96.42592 c -23.8107,0 -25.5854,-26.17697 -25.5854,-44.51565 0,-16.26817 3.8452,-39.78308 24.5502,-39.78308 22.036,0 24.9938,24.99383 24.9938,41.85358 0,15.97239 -2.5141,42.44515 -23.9586,42.44515 z"
         style="font-style:normal;font-variant:normal;font-weight:900;font-stretch:normal;font-size:147.893px;line-height:125%;font-family:'Optima LT Std';-inkscape-font-specification:'Optima LT Std, Heavy';text-align:center;writing-mode:lr-tb;text-anchor:middle"
         id="path5688"
         inkscape:connector-curvature="0" />
      <path
         d="m -1201.3455,297.02266 c 26.6207,-1.62682 31.2054,-16.41607 31.2054,-23.6628 0,-21.7402 -23.6628,-25.43752 -39.0437,-25.43752 -9.0214,0 -17.895,1.33104 -27.2122,1.33104 -6.803,0 -13.754,-0.44368 -20.7049,-1.33104 l 0.8873,20.70496 c 0.1479,8.42987 0.1479,12.42297 0.1479,35.19841 0,27.06433 0,27.06433 -1.4789,49.98768 5.3241,-0.59158 11.0919,-1.33104 16.5639,-1.33104 11.2399,0 23.9586,1.33104 33.128,1.33104 18.4865,0 39.9309,-7.83831 39.9309,-28.83905 0,-19.81759 -16.2681,-25.73329 -33.4237,-27.36011 z m -15.6766,7.24673 c 9.3173,0 14.0498,6.50727 14.0498,17.895 0,19.52181 -8.1341,19.52181 -20.1134,19.52181 -0.1479,-5.9157 -0.1479,-11.38773 -0.1479,-37.41681 z m -6.2115,-11.38772 c 0,-22.77545 0,-27.6559 0.1479,-32.83214 1.479,-0.14789 2.81,-0.14789 4.2889,-0.14789 12.5709,0 15.233,7.09884 15.233,16.71185 0,10.20458 -4.5847,16.26818 -14.1977,16.26818 z"
         style="font-style:normal;font-variant:normal;font-weight:900;font-stretch:normal;font-size:147.893px;line-height:125%;font-family:'Optima LT Std';-inkscape-font-specification:'Optima LT Std, Heavy';text-align:center;writing-mode:lr-tb;text-anchor:middle"
         id="path5690"
         inkscape:connector-curvature="0" />
      <path
         d="m -1095.801,246.59131 c -33.8674,0 -59.8965,18.93024 -59.8965,54.27655 0,34.31107 26.7685,54.27656 59.3049,54.27656 34.459,0 61.2275,-17.895 61.2275,-54.86813 0,-34.75474 -26.6207,-53.68498 -60.6359,-53.68498 z m 1.1831,96.42592 c -23.8107,0 -25.5854,-26.17697 -25.5854,-44.51565 0,-16.26817 3.8452,-39.78308 24.5502,-39.78308 22.0359,0 24.9938,24.99383 24.9938,41.85358 0,15.97239 -2.5142,42.44515 -23.9586,42.44515 z"
         style="font-style:normal;font-variant:normal;font-weight:900;font-stretch:normal;font-size:147.893px;line-height:125%;font-family:'Optima LT Std';-inkscape-font-specification:'Optima LT Std, Heavy';text-align:center;writing-mode:lr-tb;text-anchor:middle"
         id="path5692"
         inkscape:connector-curvature="0" />
      <path
         d="m -1008.1378,263.30316 c 0.4437,13.16244 0.5916,27.06434 0.5916,34.01528 0,15.08504 0.1479,42.00148 -1.6268,56.49495 3.2536,-0.44368 8.8735,-1.33104 17.15553,-1.33104 2.66207,0 8.28198,0.29579 18.48656,1.33104 -1.18314,-19.22603 -1.33103,-35.78999 -1.33103,-58.71333 0,-10.20459 0.14789,-23.07124 0.44368,-31.7969 9.31723,0 18.48656,0.59157 27.50801,1.47893 -0.44368,-1.9226 -0.88736,-4.88045 -0.88736,-7.8383 0,-3.69732 0.59157,-6.65517 0.88736,-9.02145 -15.52872,1.33104 -30.46586,1.33104 -44.51565,1.33104 -14.7893,0 -29.5785,0 -44.2199,-1.33104 0.4437,3.25364 0.8874,5.9157 0.8874,8.42988 0,3.10574 -0.2958,5.7678 -0.8874,8.42987 9.0215,-1.03525 18.1908,-1.47893 27.508,-1.47893 z"
         style="font-style:normal;font-variant:normal;font-weight:900;font-stretch:normal;font-size:147.893px;line-height:125%;font-family:'Optima LT Std';-inkscape-font-specification:'Optima LT Std, Heavy';text-align:center;writing-mode:lr-tb;text-anchor:middle"
         id="path5694"
         inkscape:connector-curvature="0" />
      <path
         d="m -900.71923,289.92382 c 0,-14.04979 0.59157,-28.09958 1.62682,-42.00148 -5.17624,0.73947 -12.12719,1.33104 -18.19078,1.33104 -5.47202,0 -12.86665,-0.73947 -18.04289,-1.33104 0.73947,8.13409 1.18314,17.45132 1.18314,24.40227 0,7.98619 0.29579,24.69805 0.29579,32.68424 0,16.26818 -0.44368,32.53636 -1.47893,48.80454 4.88046,-0.59158 11.23984,-1.33104 17.59921,-1.33104 6.21149,0 13.01455,0.44368 18.48657,1.33104 -1.33103,-13.9019 -1.47893,-32.68425 -1.47893,-49.10032 z"
         style="font-style:normal;font-variant:normal;font-weight:900;font-stretch:normal;font-size:147.893px;line-height:125%;font-family:'Optima LT Std';-inkscape-font-specification:'Optima LT Std, Heavy';text-align:center;writing-mode:lr-tb;text-anchor:middle"
         id="path5696"
         inkscape:connector-curvature="0" />
      <path
         d="m -791.17943,276.02192 c 0.59157,-4.14099 1.18314,-8.13409 2.07049,-12.27508 0.73947,-3.25363 1.77471,-6.50727 2.36628,-9.9088 -10.94404,-4.28888 -23.6628,-7.24673 -35.4942,-7.24673 -33.71949,0 -60.63593,19.8176 -60.63593,55.3118 0,32.98003 25.28962,53.24131 56.93862,53.24131 14.78925,0 25.88119,-3.9931 34.45895,-7.09884 1.33104,-5.9157 2.95785,-11.68351 4.73256,-17.45132 l -4.58466,-2.51417 c -6.50728,5.76781 -14.49347,12.86665 -28.09958,12.86665 -24.40227,0 -28.39537,-22.92334 -28.39537,-42.44516 0.44368,-18.63445 6.65517,-38.45205 28.83904,-38.45205 10.35248,0 19.37392,5.47202 21.8881,15.97239 z"
         style="font-style:normal;font-variant:normal;font-weight:900;font-stretch:normal;font-size:147.893px;line-height:125%;font-family:'Optima LT Std';-inkscape-font-specification:'Optima LT Std, Heavy';text-align:center;writing-mode:lr-tb;text-anchor:middle"
         id="path5698"
         inkscape:connector-curvature="0" />
      <path
         d="m -770.37739,324.67856 c -0.73946,10.94405 -1.77471,15.8245 -3.54942,24.10648 11.8314,4.14099 19.66971,6.35938 32.53635,6.35938 23.36702,0 40.96623,-11.53562 40.96623,-36.23367 0,-14.19768 -5.32413,-23.6628 -18.48656,-29.43061 l -11.38773,-5.02835 c -10.79615,-4.73256 -19.07813,-7.24673 -19.07813,-14.78925 0,-7.69041 9.02144,-10.64826 15.38082,-10.64826 10.50037,0 17.45132,7.24673 19.07814,15.8245 h 5.9157 c 0.59157,-6.95095 2.80995,-15.38082 5.7678,-22.03598 -9.90879,-3.69732 -20.55706,-6.35938 -31.20532,-6.35938 -21.7402,0 -39.33941,11.23983 -39.33941,34.75474 0,14.93714 9.16934,25.43751 22.33177,30.90954 19.66971,8.13408 25.43752,11.53561 25.43752,18.63445 0,7.83831 -7.9862,10.64826 -14.93715,10.64826 -11.38772,0 -21.44441,-6.50727 -23.36702,-16.71185 z"
         style="font-style:normal;font-variant:normal;font-weight:900;font-stretch:normal;font-size:147.893px;line-height:125%;font-family:'Optima LT Std';-inkscape-font-specification:'Optima LT Std, Heavy';text-align:center;writing-mode:lr-tb;text-anchor:middle"
         id="path5700"
         inkscape:connector-curvature="0" />
    </g>
  </g>
</svg>
